<?xml version="1.0" standalone="no"?>
<!DOCTYPE svg PUBLIC "-//W3C//DTD SVG 20010904//EN"
 "http://www.w3.org/TR/2001/REC-SVG-20010904/DTD/svg10.dtd">
<svg version="1.0" xmlns="http://www.w3.org/2000/svg"
 width="883.000000pt" height="883.000000pt" viewBox="0 0 883.000000 883.000000"
 preserveAspectRatio="xMidYMid meet">
<metadata>
Created by potrace 1.14, written by Peter Selinger 2001-2017
</metadata>
<g transform="translate(0.000000,883.000000) scale(0.100000,-0.100000)"
fill="#000000" stroke="none">
<path d="M4650 6240 c0 -130 57 -247 159 -328 29 -23 91 -55 148 -77 330 -126
592 -333 778 -615 76 -116 111 -185 160 -315 215 -577 71 -1232 -367 -1666
-73 -73 -208 -182 -216 -174 -2 2 20 32 48 67 57 70 120 192 145 283 25 93 30
272 11 385 -20 111 -67 258 -124 385 -35 77 -64 133 -161 310 -30 55 -207 318
-319 475 -179 250 -269 424 -322 626 -47 180 -49 389 -4 537 10 33 -15 17
-101 -65 -128 -121 -204 -251 -247 -425 -30 -118 -31 -365 -4 -493 64 -298
210 -586 485 -955 168 -225 254 -376 317 -560 25 -70 28 -95 28 -200 0 -105
-3 -130 -28 -200 -79 -228 -249 -382 -481 -436 -70 -17 -274 -14 -386 6 -472
81 -874 359 -1110 768 -200 345 -259 765 -163 1156 71 290 203 520 419 736
132 132 246 215 408 297 106 53 263 109 363 129 59 12 63 14 84 58 12 25 46
81 76 123 30 43 54 79 54 81 0 7 -87 -3 -210 -24 -219 -38 -474 -139 -670
-266 -404 -263 -690 -687 -791 -1173 -30 -148 -38 -442 -15 -596 63 -429 263
-806 581 -1095 480 -438 1156 -585 1774 -387 211 67 382 158 566 301 345 267
576 643 666 1083 26 129 37 422 20 560 -42 348 -185 678 -408 946 -226 272
-549 486 -877 582 -48 14 -108 37 -131 51 -52 30 -110 96 -127 142 -19 51 -28
39 -28 -37z"/>
<path d="M3846 5494 c-427 -510 -656 -1011 -656 -1434 0 -393 182 -702 560
-950 101 -66 317 -177 326 -167 3 3 -8 23 -24 44 -48 60 -129 199 -186 318
-183 380 -251 832 -190 1255 13 88 71 360 78 360 1 0 0 -61 -2 -136 -8 -260
25 -597 84 -862 53 -240 163 -518 269 -683 60 -93 176 -239 191 -239 6 0 40
22 76 49 237 180 353 441 307 697 -33 189 -109 332 -449 849 -341 518 -407
700 -336 923 11 35 -6 26 -48 -24z"/>
</g>
</svg>
